<?xml version="1.0" encoding="UTF-8" standalone="no"?>
<!DOCTYPE svg PUBLIC "-//W3C//DTD SVG 1.1//EN"
 "http://www.w3.org/Graphics/SVG/1.1/DTD/svg11.dtd">
<!-- Generated by graphviz version 2.40.1 (20161225.0304)
 -->
<!-- Title: dependencies Pages: 1 -->
<svg width="2447pt" height="211pt"
 viewBox="0.00 0.00 2447.00 211.00" xmlns="http://www.w3.org/2000/svg" xmlns:xlink="http://www.w3.org/1999/xlink">
<g id="graph0" class="graph" transform="scale(1 1) rotate(0) translate(4 207)">
<title>dependencies</title>
<polygon fill="#ffffff" stroke="transparent" points="-4,4 -4,-207 2443,-207 2443,4 -4,4"/>
<text text-anchor="start" x="1198.5091" y="-42.4" font-family="sans-serif" font-weight="bold" font-size="14.00" fill="#000000">Legend</text>
<polygon fill="#ffffb3" stroke="transparent" points="985.5,-10 985.5,-30 1005.5,-30 1005.5,-10 985.5,-10"/>
<text text-anchor="start" x="1009.129" y="-15.4" font-family="sans-serif" font-size="14.00" fill="#000000"> &#160;Declarations</text>
<polygon fill="#8dd3c7" stroke="transparent" points="1098.5,-10 1098.5,-30 1118.5,-30 1118.5,-10 1098.5,-10"/>
<text text-anchor="start" x="1122.2251" y="-15.4" font-family="sans-serif" font-size="14.00" fill="#000000"> &#160;Module</text>
<polygon fill="#80b1d3" stroke="transparent" points="1184.5,-10 1184.5,-30 1204.5,-30 1204.5,-10 1184.5,-10"/>
<text text-anchor="start" x="1208.2812" y="-15.4" font-family="sans-serif" font-size="14.00" fill="#000000"> &#160;Bootstrap</text>
<polygon fill="#fdb462" stroke="transparent" points="1281.5,-10 1281.5,-30 1301.5,-30 1301.5,-10 1281.5,-10"/>
<text text-anchor="start" x="1305.1732" y="-15.4" font-family="sans-serif" font-size="14.00" fill="#000000"> &#160;Providers</text>
<polygon fill="#fb8072" stroke="transparent" points="1377.5,-10 1377.5,-30 1397.5,-30 1397.5,-10 1377.5,-10"/>
<text text-anchor="start" x="1401.2258" y="-15.4" font-family="sans-serif" font-size="14.00" fill="#000000"> &#160;Exports</text>
<g id="clust1" class="cluster">
<title>cluster_CoreModule</title>
<polygon fill="none" stroke="#000000" stroke-dasharray="1,5" points="8,-70 8,-195 2431,-195 2431,-70 8,-70"/>
</g>
<g id="clust6" class="cluster">
<title>cluster_CoreModule_providers</title>
<polygon fill="none" stroke="#000000" points="16,-78 16,-130 2423,-130 2423,-78 16,-78"/>
</g>
<!-- AdPreviewGuard -->
<g id="node1" class="node">
<title>AdPreviewGuard</title>
<ellipse fill="#fdb462" stroke="#000000" cx="2336" cy="-104" rx="78.7124" ry="18"/>
<text text-anchor="middle" x="2336" y="-99.8" font-family="Times,serif" font-size="14.00" fill="#000000">AdPreviewGuard</text>
</g>
<!-- CoreModule -->
<g id="node14" class="node">
<title>CoreModule</title>
<polygon fill="#8dd3c7" stroke="#000000" points="1196.2619,-187 1193.2619,-191 1172.2619,-191 1169.2619,-187 1109.7381,-187 1109.7381,-151 1196.2619,-151 1196.2619,-187"/>
<text text-anchor="middle" x="1153" y="-164.8" font-family="Times,serif" font-size="14.00" fill="#000000">CoreModule</text>
</g>
<!-- AdPreviewGuard&#45;&gt;CoreModule -->
<g id="edge1" class="edge">
<title>AdPreviewGuard&#45;&gt;CoreModule</title>
<path fill="none" stroke="#000000" d="M2336,-122.0908C2336,-145.1328 2336,-182 2336,-182 2336,-182 1206.5066,-182 1206.5066,-182"/>
<polygon fill="#000000" stroke="#000000" points="1206.5066,-178.5001 1196.5066,-182 1206.5066,-185.5001 1206.5066,-178.5001"/>
</g>
<!-- AdPreviewService -->
<g id="node2" class="node">
<title>AdPreviewService</title>
<ellipse fill="#fdb462" stroke="#000000" cx="2156" cy="-104" rx="83.3635" ry="18"/>
<text text-anchor="middle" x="2156" y="-99.8" font-family="Times,serif" font-size="14.00" fill="#000000">AdPreviewService</text>
</g>
<!-- AdPreviewService&#45;&gt;CoreModule -->
<g id="edge2" class="edge">
<title>AdPreviewService&#45;&gt;CoreModule</title>
<path fill="none" stroke="#000000" d="M2156,-122.0449C2156,-143.6623 2156,-177 2156,-177 2156,-177 1206.4196,-177 1206.4196,-177"/>
<polygon fill="#000000" stroke="#000000" points="1206.4196,-173.5001 1196.4196,-177 1206.4196,-180.5001 1206.4196,-173.5001"/>
</g>
<!-- AuthorizationFbService -->
<g id="node3" class="node">
<title>AuthorizationFbService</title>
<ellipse fill="#fdb462" stroke="#000000" cx="1956" cy="-104" rx="98.9936" ry="18"/>
<text text-anchor="middle" x="1956" y="-99.8" font-family="Times,serif" font-size="14.00" fill="#000000">AuthorizationFbService</text>
</g>
<!-- AuthorizationFbService&#45;&gt;CoreModule -->
<g id="edge3" class="edge">
<title>AuthorizationFbService&#45;&gt;CoreModule</title>
<path fill="none" stroke="#000000" d="M1956,-122.2228C1956,-142.3652 1956,-172 1956,-172 1956,-172 1206.4575,-172 1206.4575,-172"/>
<polygon fill="#000000" stroke="#000000" points="1206.4575,-168.5001 1196.4575,-172 1206.4574,-175.5001 1206.4575,-168.5001"/>
</g>
<!-- ShopifyAuthorizationGuard -->
<g id="node4" class="node">
<title>ShopifyAuthorizationGuard</title>
<ellipse fill="#fdb462" stroke="#000000" cx="1755" cy="-104" rx="83.9489" ry="18"/>
<text text-anchor="middle" x="1755" y="-99.8" font-family="Times,serif" font-size="14.00" fill="#000000">ShopifyAuthorizationGuard</text>
</g>
<!-- ShopifyAuthorizationGuard&#45;&gt;CoreModule -->
<g id="edge4" class="edge">
<title>ShopifyAuthorizationGuard&#45;&gt;CoreModule</title>
<path fill="none" stroke="#000000" d="M1755,-122.2222C1755,-140.8285 1755,-167 1755,-167 1755,-167 1206.2944,-167 1206.2944,-167"/>
<polygon fill="#000000" stroke="#000000" points="1206.2944,-163.5001 1196.2944,-167 1206.2943,-170.5001 1206.2944,-163.5001"/>
</g>
<!-- ShopifyAuthorizationService -->
<g id="node5" class="node">
<title>ShopifyAuthorizationService</title>
<ellipse fill="#fdb462" stroke="#000000" cx="1564" cy="-104" rx="88.6005" ry="18"/>
<text text-anchor="middle" x="1564" y="-99.8" font-family="Times,serif" font-size="14.00" fill="#000000">ShopifyAuthorizationService</text>
</g>
<!-- ShopifyAuthorizationService&#45;&gt;CoreModule -->
<g id="edge5" class="edge">
<title>ShopifyAuthorizationService&#45;&gt;CoreModule</title>
<path fill="none" stroke="#000000" d="M1564,-122.0336C1564,-139.0597 1564,-162 1564,-162 1564,-162 1206.5951,-162 1206.5951,-162"/>
<polygon fill="#000000" stroke="#000000" points="1206.5951,-158.5001 1196.5951,-162 1206.5951,-165.5001 1206.5951,-158.5001"/>
</g>
<!-- AutorizationShopService -->
<g id="node6" class="node">
<title>AutorizationShopService</title>
<ellipse fill="#fdb462" stroke="#000000" cx="1350" cy="-104" rx="107.0801" ry="18"/>
<text text-anchor="middle" x="1350" y="-99.8" font-family="Times,serif" font-size="14.00" fill="#000000">AutorizationShopService</text>
</g>
<!-- AutorizationShopService&#45;&gt;CoreModule -->
<g id="edge6" class="edge">
<title>AutorizationShopService&#45;&gt;CoreModule</title>
<path fill="none" stroke="#000000" d="M1350,-122.2396C1350,-137.5706 1350,-157 1350,-157 1350,-157 1206.7207,-157 1206.7207,-157"/>
<polygon fill="#000000" stroke="#000000" points="1206.7207,-153.5001 1196.7207,-157 1206.7207,-160.5001 1206.7207,-153.5001"/>
</g>
<!-- CorsInterceptor -->
<g id="node7" class="node">
<title>CorsInterceptor</title>
<ellipse fill="#fdb462" stroke="#000000" cx="1153" cy="-104" rx="71.766" ry="18"/>
<text text-anchor="middle" x="1153" y="-99.8" font-family="Times,serif" font-size="14.00" fill="#000000">CorsInterceptor</text>
</g>
<!-- CorsInterceptor&#45;&gt;CoreModule -->
<g id="edge7" class="edge">
<title>CorsInterceptor&#45;&gt;CoreModule</title>
<path fill="none" stroke="#000000" d="M1153,-122.1061C1153,-122.1061 1153,-140.991 1153,-140.991"/>
<polygon fill="#000000" stroke="#000000" points="1149.5001,-140.9909 1153,-150.991 1156.5001,-140.991 1149.5001,-140.9909"/>
</g>
<!-- MetricsService -->
<g id="node8" class="node">
<title>MetricsService</title>
<ellipse fill="#fdb462" stroke="#000000" cx="994" cy="-104" rx="69.4742" ry="18"/>
<text text-anchor="middle" x="994" y="-99.8" font-family="Times,serif" font-size="14.00" fill="#000000">MetricsService</text>
</g>
<!-- MetricsService&#45;&gt;CoreModule -->
<g id="edge8" class="edge">
<title>MetricsService&#45;&gt;CoreModule</title>
<path fill="none" stroke="#000000" d="M994,-122.2396C994,-137.5706 994,-157 994,-157 994,-157 1099.5526,-157 1099.5526,-157"/>
<polygon fill="#000000" stroke="#000000" points="1099.5526,-160.5001 1109.5526,-157 1099.5525,-153.5001 1099.5526,-160.5001"/>
</g>
<!-- ProductListService -->
<g id="node9" class="node">
<title>ProductListService</title>
<ellipse fill="#fdb462" stroke="#000000" cx="821" cy="-104" rx="85.1063" ry="18"/>
<text text-anchor="middle" x="821" y="-99.8" font-family="Times,serif" font-size="14.00" fill="#000000">ProductListService</text>
</g>
<!-- ProductListService&#45;&gt;CoreModule -->
<g id="edge9" class="edge">
<title>ProductListService&#45;&gt;CoreModule</title>
<path fill="none" stroke="#000000" d="M821,-122.0336C821,-139.0597 821,-162 821,-162 821,-162 1099.5968,-162 1099.5968,-162"/>
<polygon fill="#000000" stroke="#000000" points="1099.5968,-165.5001 1109.5968,-162 1099.5968,-158.5001 1099.5968,-165.5001"/>
</g>
<!-- ReviewGuard -->
<g id="node10" class="node">
<title>ReviewGuard</title>
<ellipse fill="#fdb462" stroke="#000000" cx="653" cy="-104" rx="64.8273" ry="18"/>
<text text-anchor="middle" x="653" y="-99.8" font-family="Times,serif" font-size="14.00" fill="#000000">ReviewGuard</text>
</g>
<!-- ReviewGuard&#45;&gt;CoreModule -->
<g id="edge10" class="edge">
<title>ReviewGuard&#45;&gt;CoreModule</title>
<path fill="none" stroke="#000000" d="M653,-122.2222C653,-140.8285 653,-167 653,-167 653,-167 1099.503,-167 1099.503,-167"/>
<polygon fill="#000000" stroke="#000000" points="1099.503,-170.5001 1109.503,-167 1099.5029,-163.5001 1099.503,-170.5001"/>
</g>
<!-- TargetingService -->
<g id="node11" class="node">
<title>TargetingService</title>
<ellipse fill="#fdb462" stroke="#000000" cx="493" cy="-104" rx="77.5646" ry="18"/>
<text text-anchor="middle" x="493" y="-99.8" font-family="Times,serif" font-size="14.00" fill="#000000">TargetingService</text>
</g>
<!-- TargetingService&#45;&gt;CoreModule -->
<g id="edge11" class="edge">
<title>TargetingService&#45;&gt;CoreModule</title>
<path fill="none" stroke="#000000" d="M493,-122.2228C493,-142.3652 493,-172 493,-172 493,-172 1099.6956,-172 1099.6956,-172"/>
<polygon fill="#000000" stroke="#000000" points="1099.6956,-175.5001 1109.6956,-172 1099.6955,-168.5001 1099.6956,-175.5001"/>
</g>
<!-- VideoRenderGuard -->
<g id="node12" class="node">
<title>VideoRenderGuard</title>
<ellipse fill="#fdb462" stroke="#000000" cx="311" cy="-104" rx="86.801" ry="18"/>
<text text-anchor="middle" x="311" y="-99.8" font-family="Times,serif" font-size="14.00" fill="#000000">VideoRenderGuard</text>
</g>
<!-- VideoRenderGuard&#45;&gt;CoreModule -->
<g id="edge12" class="edge">
<title>VideoRenderGuard&#45;&gt;CoreModule</title>
<path fill="none" stroke="#000000" d="M311,-122.0449C311,-143.6623 311,-177 311,-177 311,-177 1099.5035,-177 1099.5035,-177"/>
<polygon fill="#000000" stroke="#000000" points="1099.5035,-180.5001 1109.5035,-177 1099.5034,-173.5001 1099.5035,-180.5001"/>
</g>
<!-- VideoRenderService -->
<g id="node13" class="node">
<title>VideoRenderService</title>
<ellipse fill="#fdb462" stroke="#000000" cx="115" cy="-104" rx="91.4519" ry="18"/>
<text text-anchor="middle" x="115" y="-99.8" font-family="Times,serif" font-size="14.00" fill="#000000">VideoRenderService</text>
</g>
<!-- VideoRenderService&#45;&gt;CoreModule -->
<g id="edge13" class="edge">
<title>VideoRenderService&#45;&gt;CoreModule</title>
<path fill="none" stroke="#000000" d="M115,-122.0908C115,-145.1328 115,-182 115,-182 115,-182 1099.72,-182 1099.72,-182"/>
<polygon fill="#000000" stroke="#000000" points="1099.72,-185.5001 1109.72,-182 1099.7199,-178.5001 1099.72,-185.5001"/>
</g>
</g>
</svg>
