<?xml version="1.0" encoding="UTF-8" standalone="no"?>
<!DOCTYPE svg PUBLIC "-//W3C//DTD SVG 1.1//EN"
 "http://www.w3.org/Graphics/SVG/1.1/DTD/svg11.dtd">
<!-- Generated by graphviz version 2.40.1 (20161225.0304)
 -->
<!-- Title: dependencies Pages: 1 -->
<svg width="1734pt" height="284pt"
 viewBox="0.00 0.00 1734.00 284.00" xmlns="http://www.w3.org/2000/svg" xmlns:xlink="http://www.w3.org/1999/xlink">
<g id="graph0" class="graph" transform="scale(1 1) rotate(0) translate(4 280)">
<title>dependencies</title>
<polygon fill="#ffffff" stroke="transparent" points="-4,4 -4,-280 1730,-280 1730,4 -4,4"/>
<text text-anchor="start" x="842.0091" y="-42.4" font-family="sans-serif" font-weight="bold" font-size="14.00" fill="#000000">Legend</text>
<polygon fill="#ffffb3" stroke="transparent" points="629,-10 629,-30 649,-30 649,-10 629,-10"/>
<text text-anchor="start" x="652.629" y="-15.4" font-family="sans-serif" font-size="14.00" fill="#000000"> &#160;Declarations</text>
<polygon fill="#8dd3c7" stroke="transparent" points="742,-10 742,-30 762,-30 762,-10 742,-10"/>
<text text-anchor="start" x="765.7251" y="-15.4" font-family="sans-serif" font-size="14.00" fill="#000000"> &#160;Module</text>
<polygon fill="#80b1d3" stroke="transparent" points="828,-10 828,-30 848,-30 848,-10 828,-10"/>
<text text-anchor="start" x="851.7812" y="-15.4" font-family="sans-serif" font-size="14.00" fill="#000000"> &#160;Bootstrap</text>
<polygon fill="#fdb462" stroke="transparent" points="925,-10 925,-30 945,-30 945,-10 925,-10"/>
<text text-anchor="start" x="948.6732" y="-15.4" font-family="sans-serif" font-size="14.00" fill="#000000"> &#160;Providers</text>
<polygon fill="#fb8072" stroke="transparent" points="1021,-10 1021,-30 1041,-30 1041,-10 1021,-10"/>
<text text-anchor="start" x="1044.7258" y="-15.4" font-family="sans-serif" font-size="14.00" fill="#000000"> &#160;Exports</text>
<g id="clust1" class="cluster">
<title>cluster_AppModule</title>
<polygon fill="none" stroke="#000000" stroke-dasharray="1,5" points="8,-70 8,-268 1718,-268 1718,-70 8,-70"/>
</g>
<g id="clust2" class="cluster">
<title>cluster_AppModule_declarations</title>
<polygon fill="none" stroke="#000000" points="273,-78 273,-130 1710,-130 1710,-78 273,-78"/>
</g>
<g id="clust12" class="cluster">
<title>cluster_AppModule_imports</title>
<polygon fill="none" stroke="#000000" points="16,-78 16,-130 265,-130 265,-78 16,-78"/>
</g>
<g id="clust14" class="cluster">
<title>cluster_AppModule_bootstrap</title>
<polygon fill="none" stroke="#000000" points="780,-208 780,-260 904,-260 904,-208 780,-208"/>
</g>
<!-- AdDialogComponent -->
<g id="node1" class="node">
<title>AdDialogComponent</title>
<polygon fill="#ffffb3" stroke="#000000" points="1702.0422,-122 1565.9578,-122 1565.9578,-86 1702.0422,-86 1702.0422,-122"/>
<text text-anchor="middle" x="1634" y="-99.8" font-family="Times,serif" font-size="14.00" fill="#000000">AdDialogComponent</text>
</g>
<!-- AppModule -->
<g id="node10" class="node">
<title>AppModule</title>
<polygon fill="#8dd3c7" stroke="#000000" points="883.6571,-187 880.6571,-191 859.6571,-191 856.6571,-187 800.3429,-187 800.3429,-151 883.6571,-151 883.6571,-187"/>
<text text-anchor="middle" x="842" y="-164.8" font-family="Times,serif" font-size="14.00" fill="#000000">AppModule</text>
</g>
<!-- AdDialogComponent&#45;&gt;AppModule -->
<g id="edge1" class="edge">
<title>AdDialogComponent&#45;&gt;AppModule</title>
<path fill="none" stroke="#000000" d="M1634,-122.2479C1634,-145.0179 1634,-181 1634,-181 1634,-181 893.7438,-181 893.7438,-181"/>
<polygon fill="#000000" stroke="#000000" points="893.7438,-177.5001 883.7438,-181 893.7438,-184.5001 893.7438,-177.5001"/>
</g>
<!-- AdPreviewComponent -->
<g id="node2" class="node">
<title>AdPreviewComponent</title>
<polygon fill="#ffffb3" stroke="#000000" points="1548.3089,-122 1403.6911,-122 1403.6911,-86 1548.3089,-86 1548.3089,-122"/>
<text text-anchor="middle" x="1476" y="-99.8" font-family="Times,serif" font-size="14.00" fill="#000000">AdPreviewComponent</text>
</g>
<!-- AdPreviewComponent&#45;&gt;AppModule -->
<g id="edge2" class="edge">
<title>AdPreviewComponent&#45;&gt;AppModule</title>
<path fill="none" stroke="#000000" d="M1476,-122.2843C1476,-143.3211 1476,-175 1476,-175 1476,-175 894.0895,-175 894.0895,-175"/>
<polygon fill="#000000" stroke="#000000" points="894.0895,-171.5001 884.0895,-175 894.0895,-178.5001 894.0895,-171.5001"/>
</g>
<!-- AppComponent -->
<g id="node3" class="node">
<title>AppComponent</title>
<polygon fill="#ffffb3" stroke="#000000" points="1385.9399,-122 1280.0601,-122 1280.0601,-86 1385.9399,-86 1385.9399,-122"/>
<text text-anchor="middle" x="1333" y="-99.8" font-family="Times,serif" font-size="14.00" fill="#000000">AppComponent</text>
</g>
<!-- AppComponent&#45;&gt;AppModule -->
<g id="edge3" class="edge">
<title>AppComponent&#45;&gt;AppModule</title>
<path fill="none" stroke="#000000" d="M1333,-122.1061C1333,-141.3391 1333,-169 1333,-169 1333,-169 893.8624,-169 893.8624,-169"/>
<polygon fill="#000000" stroke="#000000" points="893.8624,-165.5001 883.8624,-169 893.8623,-172.5001 893.8624,-165.5001"/>
</g>
<!-- CampaignDialogComponent -->
<g id="node4" class="node">
<title>CampaignDialogComponent</title>
<polygon fill="#ffffb3" stroke="#000000" points="1262.4818,-122 1085.5182,-122 1085.5182,-86 1262.4818,-86 1262.4818,-122"/>
<text text-anchor="middle" x="1174" y="-99.8" font-family="Times,serif" font-size="14.00" fill="#000000">CampaignDialogComponent</text>
</g>
<!-- CampaignDialogComponent&#45;&gt;AppModule -->
<g id="edge4" class="edge">
<title>CampaignDialogComponent&#45;&gt;AppModule</title>
<path fill="none" stroke="#000000" d="M1174,-122.0225C1174,-139.3734 1174,-163 1174,-163 1174,-163 893.7119,-163 893.7119,-163"/>
<polygon fill="#000000" stroke="#000000" points="893.7119,-159.5001 883.7119,-163 893.7118,-166.5001 893.7119,-159.5001"/>
</g>
<!-- CheckShopComponent -->
<g id="node5" class="node">
<title>CheckShopComponent</title>
<polygon fill="#ffffb3" stroke="#000000" points="1067.5421,-122 924.4579,-122 924.4579,-86 1067.5421,-86 1067.5421,-122"/>
<text text-anchor="middle" x="996" y="-99.8" font-family="Times,serif" font-size="14.00" fill="#000000">CheckShopComponent</text>
</g>
<!-- CheckShopComponent&#45;&gt;AppModule -->
<g id="edge5" class="edge">
<title>CheckShopComponent&#45;&gt;AppModule</title>
<path fill="none" stroke="#000000" d="M996,-122.2396C996,-137.5706 996,-157 996,-157 996,-157 893.6746,-157 893.6746,-157"/>
<polygon fill="#000000" stroke="#000000" points="893.6747,-153.5001 883.6746,-157 893.6746,-160.5001 893.6747,-153.5001"/>
</g>
<!-- LandingComponent -->
<g id="node6" class="node">
<title>LandingComponent</title>
<polygon fill="#ffffb3" stroke="#000000" points="905.9902,-122 778.0098,-122 778.0098,-86 905.9902,-86 905.9902,-122"/>
<text text-anchor="middle" x="842" y="-99.8" font-family="Times,serif" font-size="14.00" fill="#000000">LandingComponent</text>
</g>
<!-- LandingComponent&#45;&gt;AppModule -->
<g id="edge6" class="edge">
<title>LandingComponent&#45;&gt;AppModule</title>
<path fill="none" stroke="#000000" d="M842,-122.1061C842,-122.1061 842,-140.991 842,-140.991"/>
<polygon fill="#000000" stroke="#000000" points="838.5001,-140.9909 842,-150.991 845.5001,-140.991 838.5001,-140.9909"/>
</g>
<!-- ProductDialogComponent -->
<g id="node7" class="node">
<title>ProductDialogComponent</title>
<polygon fill="#ffffb3" stroke="#000000" points="760.4832,-122 597.5168,-122 597.5168,-86 760.4832,-86 760.4832,-122"/>
<text text-anchor="middle" x="679" y="-99.8" font-family="Times,serif" font-size="14.00" fill="#000000">ProductDialogComponent</text>
</g>
<!-- ProductDialogComponent&#45;&gt;AppModule -->
<g id="edge7" class="edge">
<title>ProductDialogComponent&#45;&gt;AppModule</title>
<path fill="none" stroke="#000000" d="M679,-122.2396C679,-137.5706 679,-157 679,-157 679,-157 790.0234,-157 790.0234,-157"/>
<polygon fill="#000000" stroke="#000000" points="790.0235,-160.5001 800.0234,-157 790.0234,-153.5001 790.0235,-160.5001"/>
</g>
<!-- ReviewComponent -->
<g id="node8" class="node">
<title>ReviewComponent</title>
<polygon fill="#ffffb3" stroke="#000000" points="579.0954,-122 454.9046,-122 454.9046,-86 579.0954,-86 579.0954,-122"/>
<text text-anchor="middle" x="517" y="-99.8" font-family="Times,serif" font-size="14.00" fill="#000000">ReviewComponent</text>
</g>
<!-- ReviewComponent&#45;&gt;AppModule -->
<g id="edge8" class="edge">
<title>ReviewComponent&#45;&gt;AppModule</title>
<path fill="none" stroke="#000000" d="M517,-122.0225C517,-139.3734 517,-163 517,-163 517,-163 790.1773,-163 790.1773,-163"/>
<polygon fill="#000000" stroke="#000000" points="790.1773,-166.5001 800.1773,-163 790.1772,-159.5001 790.1773,-166.5001"/>
</g>
<!-- VideoRenderComponent -->
<g id="node9" class="node">
<title>VideoRenderComponent</title>
<polygon fill="#ffffb3" stroke="#000000" points="436.9706,-122 281.0294,-122 281.0294,-86 436.9706,-86 436.9706,-122"/>
<text text-anchor="middle" x="359" y="-99.8" font-family="Times,serif" font-size="14.00" fill="#000000">VideoRenderComponent</text>
</g>
<!-- VideoRenderComponent&#45;&gt;AppModule -->
<g id="edge9" class="edge">
<title>VideoRenderComponent&#45;&gt;AppModule</title>
<path fill="none" stroke="#000000" d="M359,-122.1061C359,-141.3391 359,-169 359,-169 359,-169 789.9819,-169 789.9819,-169"/>
<polygon fill="#000000" stroke="#000000" points="789.9819,-172.5001 799.9819,-169 789.9818,-165.5001 789.9819,-172.5001"/>
</g>
<!-- AppComponent  -->
<g id="node13" class="node">
<title>AppComponent </title>
<polygon fill="#80b1d3" stroke="#000000" points="896.439,-252 787.561,-252 787.561,-216 896.439,-216 896.439,-252"/>
<text text-anchor="middle" x="842" y="-229.8" font-family="Times,serif" font-size="14.00" fill="#000000">AppComponent </text>
</g>
<!-- AppModule&#45;&gt;AppComponent  -->
<g id="edge12" class="edge">
<title>AppModule&#45;&gt;AppComponent </title>
<path fill="none" stroke="#000000" stroke-dasharray="1,5" d="M842,-187.1061C842,-187.1061 842,-205.991 842,-205.991"/>
<polygon fill="#000000" stroke="#000000" points="838.5001,-205.9909 842,-215.991 845.5001,-205.991 838.5001,-205.9909"/>
</g>
<!-- AppRoutingModule -->
<g id="node11" class="node">
<title>AppRoutingModule</title>
<polygon fill="#8dd3c7" stroke="#000000" points="257.2744,-122 254.2744,-126 233.2744,-126 230.2744,-122 128.7256,-122 128.7256,-86 257.2744,-86 257.2744,-122"/>
<text text-anchor="middle" x="193" y="-99.8" font-family="Times,serif" font-size="14.00" fill="#000000">AppRoutingModule</text>
</g>
<!-- AppRoutingModule&#45;&gt;AppModule -->
<g id="edge10" class="edge">
<title>AppRoutingModule&#45;&gt;AppModule</title>
<path fill="none" stroke="#000000" d="M193,-122.2843C193,-143.3211 193,-175 193,-175 193,-175 789.9174,-175 789.9174,-175"/>
<polygon fill="#000000" stroke="#000000" points="789.9174,-178.5001 799.9174,-175 789.9173,-171.5001 789.9174,-178.5001"/>
</g>
<!-- CoreModule -->
<g id="node12" class="node">
<title>CoreModule</title>
<polygon fill="#8dd3c7" stroke="#000000" points="110.2619,-122 107.2619,-126 86.2619,-126 83.2619,-122 23.7381,-122 23.7381,-86 110.2619,-86 110.2619,-122"/>
<text text-anchor="middle" x="67" y="-99.8" font-family="Times,serif" font-size="14.00" fill="#000000">CoreModule</text>
</g>
<!-- CoreModule&#45;&gt;AppModule -->
<g id="edge11" class="edge">
<title>CoreModule&#45;&gt;AppModule</title>
<path fill="none" stroke="#000000" d="M67,-122.2479C67,-145.0179 67,-181 67,-181 67,-181 790.3326,-181 790.3326,-181"/>
<polygon fill="#000000" stroke="#000000" points="790.3327,-184.5001 800.3326,-181 790.3326,-177.5001 790.3327,-184.5001"/>
</g>
</g>
</svg>
