<?xml version="1.0" encoding="UTF-8" standalone="no"?>
<!DOCTYPE svg PUBLIC "-//W3C//DTD SVG 1.1//EN"
 "http://www.w3.org/Graphics/SVG/1.1/DTD/svg11.dtd">
<!-- Generated by graphviz version 2.40.1 (20161225.0304)
 -->
<!-- Title: dependencies Pages: 1 -->
<svg width="2820pt" height="360pt"
 viewBox="0.00 0.00 2820.00 360.00" xmlns="http://www.w3.org/2000/svg" xmlns:xlink="http://www.w3.org/1999/xlink">
<g id="graph0" class="graph" transform="scale(1 1) rotate(0) translate(4 356)">
<title>dependencies</title>
<polygon fill="#ffffff" stroke="transparent" points="-4,4 -4,-356 2816,-356 2816,4 -4,4"/>
<text text-anchor="start" x="1385.0091" y="-42.4" font-family="sans-serif" font-weight="bold" font-size="14.00" fill="#000000">Legend</text>
<polygon fill="#ffffb3" stroke="transparent" points="1172,-10 1172,-30 1192,-30 1192,-10 1172,-10"/>
<text text-anchor="start" x="1195.629" y="-15.4" font-family="sans-serif" font-size="14.00" fill="#000000"> &#160;Declarations</text>
<polygon fill="#8dd3c7" stroke="transparent" points="1285,-10 1285,-30 1305,-30 1305,-10 1285,-10"/>
<text text-anchor="start" x="1308.7251" y="-15.4" font-family="sans-serif" font-size="14.00" fill="#000000"> &#160;Module</text>
<polygon fill="#80b1d3" stroke="transparent" points="1371,-10 1371,-30 1391,-30 1391,-10 1371,-10"/>
<text text-anchor="start" x="1394.7812" y="-15.4" font-family="sans-serif" font-size="14.00" fill="#000000"> &#160;Bootstrap</text>
<polygon fill="#fdb462" stroke="transparent" points="1468,-10 1468,-30 1488,-30 1488,-10 1468,-10"/>
<text text-anchor="start" x="1491.6732" y="-15.4" font-family="sans-serif" font-size="14.00" fill="#000000"> &#160;Providers</text>
<polygon fill="#fb8072" stroke="transparent" points="1564,-10 1564,-30 1584,-30 1584,-10 1564,-10"/>
<text text-anchor="start" x="1587.7258" y="-15.4" font-family="sans-serif" font-size="14.00" fill="#000000"> &#160;Exports</text>
<g id="clust1" class="cluster">
<title>cluster_AppModule</title>
<polygon fill="none" stroke="#000000" stroke-dasharray="1,5" points="1094,-146 1094,-344 2804,-344 2804,-146 1094,-146"/>
</g>
<g id="clust2" class="cluster">
<title>cluster_AppModule_declarations</title>
<polygon fill="none" stroke="#000000" points="1359,-154 1359,-206 2796,-206 2796,-154 1359,-154"/>
</g>
<g id="clust12" class="cluster">
<title>cluster_AppModule_imports</title>
<polygon fill="none" stroke="#000000" points="1102,-154 1102,-206 1351,-206 1351,-154 1102,-154"/>
</g>
<g id="clust14" class="cluster">
<title>cluster_AppModule_bootstrap</title>
<polygon fill="none" stroke="#000000" points="1866,-284 1866,-336 1990,-336 1990,-284 1866,-284"/>
</g>
<g id="clust22" class="cluster">
<title>cluster_CoreModule</title>
<polygon fill="none" stroke="#000000" stroke-dasharray="1,5" points="8,-70 8,-138 2431,-138 2431,-70 8,-70"/>
</g>
<g id="clust27" class="cluster">
<title>cluster_CoreModule_providers</title>
<polygon fill="none" stroke="#000000" points="16,-78 16,-130 2423,-130 2423,-78 16,-78"/>
</g>
<!-- AdDialogComponent -->
<g id="node1" class="node">
<title>AdDialogComponent</title>
<polygon fill="#ffffb3" stroke="#000000" points="2788.0422,-198 2651.9578,-198 2651.9578,-162 2788.0422,-162 2788.0422,-198"/>
<text text-anchor="middle" x="2720" y="-175.8" font-family="Times,serif" font-size="14.00" fill="#000000">AdDialogComponent</text>
</g>
<!-- AppModule -->
<g id="node10" class="node">
<title>AppModule</title>
<polygon fill="#8dd3c7" stroke="#000000" points="1969.6571,-263 1966.6571,-267 1945.6571,-267 1942.6571,-263 1886.3429,-263 1886.3429,-227 1969.6571,-227 1969.6571,-263"/>
<text text-anchor="middle" x="1928" y="-240.8" font-family="Times,serif" font-size="14.00" fill="#000000">AppModule</text>
</g>
<!-- AdDialogComponent&#45;&gt;AppModule -->
<g id="edge1" class="edge">
<title>AdDialogComponent&#45;&gt;AppModule</title>
<path fill="none" stroke="#000000" d="M2720,-198.2479C2720,-221.0179 2720,-257 2720,-257 2720,-257 1979.7438,-257 1979.7438,-257"/>
<polygon fill="#000000" stroke="#000000" points="1979.7438,-253.5001 1969.7438,-257 1979.7438,-260.5001 1979.7438,-253.5001"/>
</g>
<!-- AdPreviewComponent -->
<g id="node2" class="node">
<title>AdPreviewComponent</title>
<polygon fill="#ffffb3" stroke="#000000" points="2634.3089,-198 2489.6911,-198 2489.6911,-162 2634.3089,-162 2634.3089,-198"/>
<text text-anchor="middle" x="2562" y="-175.8" font-family="Times,serif" font-size="14.00" fill="#000000">AdPreviewComponent</text>
</g>
<!-- AdPreviewComponent&#45;&gt;AppModule -->
<g id="edge2" class="edge">
<title>AdPreviewComponent&#45;&gt;AppModule</title>
<path fill="none" stroke="#000000" d="M2562,-198.2843C2562,-219.3211 2562,-251 2562,-251 2562,-251 1980.0895,-251 1980.0895,-251"/>
<polygon fill="#000000" stroke="#000000" points="1980.0895,-247.5001 1970.0895,-251 1980.0895,-254.5001 1980.0895,-247.5001"/>
</g>
<!-- AppComponent -->
<g id="node3" class="node">
<title>AppComponent</title>
<polygon fill="#ffffb3" stroke="#000000" points="2471.9399,-198 2366.0601,-198 2366.0601,-162 2471.9399,-162 2471.9399,-198"/>
<text text-anchor="middle" x="2419" y="-175.8" font-family="Times,serif" font-size="14.00" fill="#000000">AppComponent</text>
</g>
<!-- AppComponent&#45;&gt;AppModule -->
<g id="edge3" class="edge">
<title>AppComponent&#45;&gt;AppModule</title>
<path fill="none" stroke="#000000" d="M2419,-198.1061C2419,-217.3391 2419,-245 2419,-245 2419,-245 1979.8624,-245 1979.8624,-245"/>
<polygon fill="#000000" stroke="#000000" points="1979.8624,-241.5001 1969.8624,-245 1979.8623,-248.5001 1979.8624,-241.5001"/>
</g>
<!-- CampaignDialogComponent -->
<g id="node4" class="node">
<title>CampaignDialogComponent</title>
<polygon fill="#ffffb3" stroke="#000000" points="2348.4818,-198 2171.5182,-198 2171.5182,-162 2348.4818,-162 2348.4818,-198"/>
<text text-anchor="middle" x="2260" y="-175.8" font-family="Times,serif" font-size="14.00" fill="#000000">CampaignDialogComponent</text>
</g>
<!-- CampaignDialogComponent&#45;&gt;AppModule -->
<g id="edge4" class="edge">
<title>CampaignDialogComponent&#45;&gt;AppModule</title>
<path fill="none" stroke="#000000" d="M2260,-198.0225C2260,-215.3734 2260,-239 2260,-239 2260,-239 1979.7119,-239 1979.7119,-239"/>
<polygon fill="#000000" stroke="#000000" points="1979.7119,-235.5001 1969.7119,-239 1979.7118,-242.5001 1979.7119,-235.5001"/>
</g>
<!-- CheckShopComponent -->
<g id="node5" class="node">
<title>CheckShopComponent</title>
<polygon fill="#ffffb3" stroke="#000000" points="2153.5421,-198 2010.4579,-198 2010.4579,-162 2153.5421,-162 2153.5421,-198"/>
<text text-anchor="middle" x="2082" y="-175.8" font-family="Times,serif" font-size="14.00" fill="#000000">CheckShopComponent</text>
</g>
<!-- CheckShopComponent&#45;&gt;AppModule -->
<g id="edge5" class="edge">
<title>CheckShopComponent&#45;&gt;AppModule</title>
<path fill="none" stroke="#000000" d="M2082,-198.2396C2082,-213.5706 2082,-233 2082,-233 2082,-233 1979.6746,-233 1979.6746,-233"/>
<polygon fill="#000000" stroke="#000000" points="1979.6747,-229.5001 1969.6746,-233 1979.6746,-236.5001 1979.6747,-229.5001"/>
</g>
<!-- LandingComponent -->
<g id="node6" class="node">
<title>LandingComponent</title>
<polygon fill="#ffffb3" stroke="#000000" points="1991.9902,-198 1864.0098,-198 1864.0098,-162 1991.9902,-162 1991.9902,-198"/>
<text text-anchor="middle" x="1928" y="-175.8" font-family="Times,serif" font-size="14.00" fill="#000000">LandingComponent</text>
</g>
<!-- LandingComponent&#45;&gt;AppModule -->
<g id="edge6" class="edge">
<title>LandingComponent&#45;&gt;AppModule</title>
<path fill="none" stroke="#000000" d="M1928,-198.1061C1928,-198.1061 1928,-216.991 1928,-216.991"/>
<polygon fill="#000000" stroke="#000000" points="1924.5001,-216.9909 1928,-226.991 1931.5001,-216.991 1924.5001,-216.9909"/>
</g>
<!-- ProductDialogComponent -->
<g id="node7" class="node">
<title>ProductDialogComponent</title>
<polygon fill="#ffffb3" stroke="#000000" points="1846.4832,-198 1683.5168,-198 1683.5168,-162 1846.4832,-162 1846.4832,-198"/>
<text text-anchor="middle" x="1765" y="-175.8" font-family="Times,serif" font-size="14.00" fill="#000000">ProductDialogComponent</text>
</g>
<!-- ProductDialogComponent&#45;&gt;AppModule -->
<g id="edge7" class="edge">
<title>ProductDialogComponent&#45;&gt;AppModule</title>
<path fill="none" stroke="#000000" d="M1765,-198.2396C1765,-213.5706 1765,-233 1765,-233 1765,-233 1876.0234,-233 1876.0234,-233"/>
<polygon fill="#000000" stroke="#000000" points="1876.0235,-236.5001 1886.0234,-233 1876.0234,-229.5001 1876.0235,-236.5001"/>
</g>
<!-- ReviewComponent -->
<g id="node8" class="node">
<title>ReviewComponent</title>
<polygon fill="#ffffb3" stroke="#000000" points="1665.0954,-198 1540.9046,-198 1540.9046,-162 1665.0954,-162 1665.0954,-198"/>
<text text-anchor="middle" x="1603" y="-175.8" font-family="Times,serif" font-size="14.00" fill="#000000">ReviewComponent</text>
</g>
<!-- ReviewComponent&#45;&gt;AppModule -->
<g id="edge8" class="edge">
<title>ReviewComponent&#45;&gt;AppModule</title>
<path fill="none" stroke="#000000" d="M1603,-198.0225C1603,-215.3734 1603,-239 1603,-239 1603,-239 1876.1773,-239 1876.1773,-239"/>
<polygon fill="#000000" stroke="#000000" points="1876.1773,-242.5001 1886.1773,-239 1876.1772,-235.5001 1876.1773,-242.5001"/>
</g>
<!-- VideoRenderComponent -->
<g id="node9" class="node">
<title>VideoRenderComponent</title>
<polygon fill="#ffffb3" stroke="#000000" points="1522.9706,-198 1367.0294,-198 1367.0294,-162 1522.9706,-162 1522.9706,-198"/>
<text text-anchor="middle" x="1445" y="-175.8" font-family="Times,serif" font-size="14.00" fill="#000000">VideoRenderComponent</text>
</g>
<!-- VideoRenderComponent&#45;&gt;AppModule -->
<g id="edge9" class="edge">
<title>VideoRenderComponent&#45;&gt;AppModule</title>
<path fill="none" stroke="#000000" d="M1445,-198.1061C1445,-217.3391 1445,-245 1445,-245 1445,-245 1875.9819,-245 1875.9819,-245"/>
<polygon fill="#000000" stroke="#000000" points="1875.9819,-248.5001 1885.9819,-245 1875.9818,-241.5001 1875.9819,-248.5001"/>
</g>
<!-- AppComponent  -->
<g id="node13" class="node">
<title>AppComponent </title>
<polygon fill="#80b1d3" stroke="#000000" points="1982.439,-328 1873.561,-328 1873.561,-292 1982.439,-292 1982.439,-328"/>
<text text-anchor="middle" x="1928" y="-305.8" font-family="Times,serif" font-size="14.00" fill="#000000">AppComponent </text>
</g>
<!-- AppModule&#45;&gt;AppComponent  -->
<g id="edge12" class="edge">
<title>AppModule&#45;&gt;AppComponent </title>
<path fill="none" stroke="#000000" stroke-dasharray="1,5" d="M1928,-263.1061C1928,-263.1061 1928,-281.991 1928,-281.991"/>
<polygon fill="#000000" stroke="#000000" points="1924.5001,-281.9909 1928,-291.991 1931.5001,-281.991 1924.5001,-281.9909"/>
</g>
<!-- AppRoutingModule -->
<g id="node11" class="node">
<title>AppRoutingModule</title>
<polygon fill="#8dd3c7" stroke="#000000" points="1343.2744,-198 1340.2744,-202 1319.2744,-202 1316.2744,-198 1214.7256,-198 1214.7256,-162 1343.2744,-162 1343.2744,-198"/>
<text text-anchor="middle" x="1279" y="-175.8" font-family="Times,serif" font-size="14.00" fill="#000000">AppRoutingModule</text>
</g>
<!-- AppRoutingModule&#45;&gt;AppModule -->
<g id="edge10" class="edge">
<title>AppRoutingModule&#45;&gt;AppModule</title>
<path fill="none" stroke="#000000" d="M1279,-198.2843C1279,-219.3211 1279,-251 1279,-251 1279,-251 1875.9174,-251 1875.9174,-251"/>
<polygon fill="#000000" stroke="#000000" points="1875.9174,-254.5001 1885.9174,-251 1875.9173,-247.5001 1875.9174,-254.5001"/>
</g>
<!-- CoreModule -->
<g id="node12" class="node">
<title>CoreModule</title>
<polygon fill="#8dd3c7" stroke="#000000" points="1196.2619,-198 1193.2619,-202 1172.2619,-202 1169.2619,-198 1109.7381,-198 1109.7381,-162 1196.2619,-162 1196.2619,-198"/>
<text text-anchor="middle" x="1153" y="-175.8" font-family="Times,serif" font-size="14.00" fill="#000000">CoreModule</text>
</g>
<!-- CoreModule&#45;&gt;AppModule -->
<g id="edge11" class="edge">
<title>CoreModule&#45;&gt;AppModule</title>
<path fill="none" stroke="#000000" d="M1153,-198.2479C1153,-221.0179 1153,-257 1153,-257 1153,-257 1876.3326,-257 1876.3326,-257"/>
<polygon fill="#000000" stroke="#000000" points="1876.3327,-260.5001 1886.3326,-257 1876.3326,-253.5001 1876.3327,-260.5001"/>
</g>
<!-- AdPreviewGuard -->
<g id="node14" class="node">
<title>AdPreviewGuard</title>
<ellipse fill="#fdb462" stroke="#000000" cx="2336" cy="-104" rx="78.7124" ry="18"/>
<text text-anchor="middle" x="2336" y="-99.8" font-family="Times,serif" font-size="14.00" fill="#000000">AdPreviewGuard</text>
</g>
<!-- AdPreviewGuard&#45;&gt;CoreModule -->
<g id="edge13" class="edge">
<title>AdPreviewGuard&#45;&gt;CoreModule</title>
<path fill="none" stroke="#000000" d="M2302.9424,-120.479C2302.9424,-136.0373 2302.9424,-157 2302.9424,-157 2302.9424,-157 1185.5356,-157 1185.5356,-157 1185.5356,-157 1185.5356,-157.4878 1185.5356,-157.4878"/>
<polygon fill="#000000" stroke="#000000" points="1182.0358,-151.8776 1185.5356,-161.8777 1189.0358,-151.8778 1182.0358,-151.8776"/>
</g>
<!-- AdPreviewService -->
<g id="node15" class="node">
<title>AdPreviewService</title>
<ellipse fill="#fdb462" stroke="#000000" cx="2156" cy="-104" rx="83.3635" ry="18"/>
<text text-anchor="middle" x="2156" y="-99.8" font-family="Times,serif" font-size="14.00" fill="#000000">AdPreviewService</text>
</g>
<!-- AdPreviewService&#45;&gt;CoreModule -->
<g id="edge14" class="edge">
<title>AdPreviewService&#45;&gt;CoreModule</title>
<path fill="none" stroke="#000000" d="M2113.1695,-119.6503C2113.1695,-133.3226 2113.1695,-151 2113.1695,-151 2113.1695,-151 1174.6904,-151 1174.6904,-151 1174.6904,-151 1174.6904,-152.0799 1174.6904,-152.0799"/>
<polygon fill="#000000" stroke="#000000" points="1171.1905,-151.7985 1174.6904,-161.7985 1178.1905,-151.7986 1171.1905,-151.7985"/>
</g>
<!-- AuthorizationFbService -->
<g id="node16" class="node">
<title>AuthorizationFbService</title>
<ellipse fill="#fdb462" stroke="#000000" cx="1956" cy="-104" rx="98.9936" ry="18"/>
<text text-anchor="middle" x="1956" y="-99.8" font-family="Times,serif" font-size="14.00" fill="#000000">AuthorizationFbService</text>
</g>
<!-- AuthorizationFbService&#45;&gt;CoreModule -->
<g id="edge15" class="edge">
<title>AuthorizationFbService&#45;&gt;CoreModule</title>
<path fill="none" stroke="#000000" d="M1860.5041,-109.0274C1860.5041,-119.9756 1860.5041,-145 1860.5041,-145 1860.5041,-145 1163.8452,-145 1163.8452,-145 1163.8452,-145 1163.8452,-151.68 1163.8452,-151.68"/>
<polygon fill="#000000" stroke="#000000" points="1160.3453,-151.6799 1163.8452,-161.68 1167.3453,-151.68 1160.3453,-151.6799"/>
</g>
<!-- ShopifyAuthorizationGuard -->
<g id="node17" class="node">
<title>ShopifyAuthorizationGuard</title>
<ellipse fill="#fdb462" stroke="#000000" cx="1755" cy="-104" rx="83.9489" ry="18"/>
<text text-anchor="middle" x="1755" y="-99.8" font-family="Times,serif" font-size="14.00" fill="#000000">ShopifyAuthorizationGuard</text>
</g>
<!-- ShopifyAuthorizationGuard&#45;&gt;CoreModule -->
<g id="edge16" class="edge">
<title>ShopifyAuthorizationGuard&#45;&gt;CoreModule</title>
<path fill="none" stroke="#000000" d="M1677.267,-110.9412C1677.267,-121.4023 1677.267,-140 1677.267,-140 1677.267,-140 1153,-140 1153,-140 1153,-140 1153,-151.8726 1153,-151.8726"/>
<polygon fill="#000000" stroke="#000000" points="1149.5001,-151.8725 1153,-161.8726 1156.5001,-151.8726 1149.5001,-151.8725"/>
</g>
<!-- ShopifyAuthorizationService -->
<g id="node18" class="node">
<title>ShopifyAuthorizationService</title>
<ellipse fill="#fdb462" stroke="#000000" cx="1564" cy="-104" rx="88.6005" ry="18"/>
<text text-anchor="middle" x="1564" y="-99.8" font-family="Times,serif" font-size="14.00" fill="#000000">ShopifyAuthorizationService</text>
</g>
<!-- ShopifyAuthorizationService&#45;&gt;CoreModule -->
<g id="edge17" class="edge">
<title>ShopifyAuthorizationService&#45;&gt;CoreModule</title>
<path fill="none" stroke="#000000" d="M1499.0926,-116.5489C1499.0926,-124.7697 1499.0926,-134 1499.0926,-134 1499.0926,-134 1142.1548,-134 1142.1548,-134 1142.1548,-134 1142.1548,-151.8196 1142.1548,-151.8196"/>
<polygon fill="#000000" stroke="#000000" points="1138.6549,-151.8195 1142.1548,-161.8196 1145.6549,-151.8196 1138.6549,-151.8195"/>
</g>
<!-- AutorizationShopService -->
<g id="node19" class="node">
<title>AutorizationShopService</title>
<ellipse fill="#fdb462" stroke="#000000" cx="1350" cy="-104" rx="107.0801" ry="18"/>
<text text-anchor="middle" x="1350" y="-99.8" font-family="Times,serif" font-size="14.00" fill="#000000">AutorizationShopService</text>
</g>
<!-- AutorizationShopService&#45;&gt;CoreModule -->
<g id="edge18" class="edge">
<title>AutorizationShopService&#45;&gt;CoreModule</title>
<path fill="none" stroke="#000000" d="M1293.1735,-119.3354C1293.1735,-124.0391 1293.1735,-128 1293.1735,-128 1293.1735,-128 1131.3096,-128 1131.3096,-128 1131.3096,-128 1131.3096,-151.8129 1131.3096,-151.8129"/>
<polygon fill="#000000" stroke="#000000" points="1127.8097,-151.8129 1131.3096,-161.8129 1134.8097,-151.813 1127.8097,-151.8129"/>
</g>
<!-- CorsInterceptor -->
<g id="node20" class="node">
<title>CorsInterceptor</title>
<ellipse fill="#fdb462" stroke="#000000" cx="1153" cy="-104" rx="71.766" ry="18"/>
<text text-anchor="middle" x="1153" y="-99.8" font-family="Times,serif" font-size="14.00" fill="#000000">CorsInterceptor</text>
</g>
<!-- CorsInterceptor&#45;&gt;CoreModule -->
<g id="edge19" class="edge">
<title>CorsInterceptor&#45;&gt;CoreModule</title>
<path fill="none" stroke="#000000" d="M1120.4644,-120.1176C1120.4644,-120.1176 1120.4644,-151.7719 1120.4644,-151.7719"/>
<polygon fill="#000000" stroke="#000000" points="1116.9645,-151.7719 1120.4644,-161.7719 1123.9645,-151.772 1116.9645,-151.7719"/>
</g>
<!-- MetricsService -->
<g id="node21" class="node">
<title>MetricsService</title>
<ellipse fill="#fdb462" stroke="#000000" cx="994" cy="-104" rx="69.4742" ry="18"/>
<text text-anchor="middle" x="994" y="-99.8" font-family="Times,serif" font-size="14.00" fill="#000000">MetricsService</text>
</g>
<!-- MetricsService&#45;&gt;CoreModule -->
<g id="edge20" class="edge">
<title>MetricsService&#45;&gt;CoreModule</title>
<path fill="none" stroke="#000000" d="M994,-122.1686C994,-141.0898 994,-168 994,-168 994,-168 1099.5526,-168 1099.5526,-168"/>
<polygon fill="#000000" stroke="#000000" points="1099.5526,-171.5001 1109.5526,-168 1099.5525,-164.5001 1099.5526,-171.5001"/>
</g>
<!-- ProductListService -->
<g id="node22" class="node">
<title>ProductListService</title>
<ellipse fill="#fdb462" stroke="#000000" cx="821" cy="-104" rx="85.1063" ry="18"/>
<text text-anchor="middle" x="821" y="-99.8" font-family="Times,serif" font-size="14.00" fill="#000000">ProductListService</text>
</g>
<!-- ProductListService&#45;&gt;CoreModule -->
<g id="edge21" class="edge">
<title>ProductListService&#45;&gt;CoreModule</title>
<path fill="none" stroke="#000000" d="M821,-122.1289C821,-142.5724 821,-173 821,-173 821,-173 1099.5968,-173 1099.5968,-173"/>
<polygon fill="#000000" stroke="#000000" points="1099.5968,-176.5001 1109.5968,-173 1099.5968,-169.5001 1099.5968,-176.5001"/>
</g>
<!-- ReviewGuard -->
<g id="node23" class="node">
<title>ReviewGuard</title>
<ellipse fill="#fdb462" stroke="#000000" cx="653" cy="-104" rx="64.8273" ry="18"/>
<text text-anchor="middle" x="653" y="-99.8" font-family="Times,serif" font-size="14.00" fill="#000000">ReviewGuard</text>
</g>
<!-- ReviewGuard&#45;&gt;CoreModule -->
<g id="edge22" class="edge">
<title>ReviewGuard&#45;&gt;CoreModule</title>
<path fill="none" stroke="#000000" d="M653,-122.2921C653,-144.2057 653,-178 653,-178 653,-178 1099.503,-178 1099.503,-178"/>
<polygon fill="#000000" stroke="#000000" points="1099.503,-181.5001 1109.503,-178 1099.5029,-174.5001 1099.503,-181.5001"/>
</g>
<!-- TargetingService -->
<g id="node24" class="node">
<title>TargetingService</title>
<ellipse fill="#fdb462" stroke="#000000" cx="493" cy="-104" rx="77.5646" ry="18"/>
<text text-anchor="middle" x="493" y="-99.8" font-family="Times,serif" font-size="14.00" fill="#000000">TargetingService</text>
</g>
<!-- TargetingService&#45;&gt;CoreModule -->
<g id="edge23" class="edge">
<title>TargetingService&#45;&gt;CoreModule</title>
<path fill="none" stroke="#000000" d="M493,-122.3228C493,-145.6602 493,-183 493,-183 493,-183 1099.6956,-183 1099.6956,-183"/>
<polygon fill="#000000" stroke="#000000" points="1099.6956,-186.5001 1109.6956,-183 1099.6955,-179.5001 1099.6956,-186.5001"/>
</g>
<!-- VideoRenderGuard -->
<g id="node25" class="node">
<title>VideoRenderGuard</title>
<ellipse fill="#fdb462" stroke="#000000" cx="311" cy="-104" rx="86.801" ry="18"/>
<text text-anchor="middle" x="311" y="-99.8" font-family="Times,serif" font-size="14.00" fill="#000000">VideoRenderGuard</text>
</g>
<!-- VideoRenderGuard&#45;&gt;CoreModule -->
<g id="edge24" class="edge">
<title>VideoRenderGuard&#45;&gt;CoreModule</title>
<path fill="none" stroke="#000000" d="M311,-122.2267C311,-146.9318 311,-188 311,-188 311,-188 1099.5035,-188 1099.5035,-188"/>
<polygon fill="#000000" stroke="#000000" points="1099.5035,-191.5001 1109.5035,-188 1099.5034,-184.5001 1099.5035,-191.5001"/>
</g>
<!-- VideoRenderService -->
<g id="node26" class="node">
<title>VideoRenderService</title>
<ellipse fill="#fdb462" stroke="#000000" cx="115" cy="-104" rx="91.4519" ry="18"/>
<text text-anchor="middle" x="115" y="-99.8" font-family="Times,serif" font-size="14.00" fill="#000000">VideoRenderService</text>
</g>
<!-- VideoRenderService&#45;&gt;CoreModule -->
<g id="edge25" class="edge">
<title>VideoRenderService&#45;&gt;CoreModule</title>
<path fill="none" stroke="#000000" d="M115,-122.0105C115,-148.0165 115,-193 115,-193 115,-193 1099.72,-193 1099.72,-193"/>
<polygon fill="#000000" stroke="#000000" points="1099.72,-196.5001 1109.72,-193 1099.7199,-189.5001 1099.72,-196.5001"/>
</g>
</g>
</svg>
